<?xml version="1.0" standalone="no"?>
<!DOCTYPE svg PUBLIC "-//W3C//DTD SVG 20010904//EN"
 "http://www.w3.org/TR/2001/REC-SVG-20010904/DTD/svg10.dtd">
<svg version="1.0" xmlns="http://www.w3.org/2000/svg"
 width="974.000000pt" height="974.000000pt" viewBox="0 0 974.000000 974.000000"
 preserveAspectRatio="xMidYMid meet">
<metadata>
Created by potrace 1.11, written by Peter Selinger 2001-2013
</metadata>
<g transform="translate(0.000000,974.000000) scale(0.100000,-0.100000)"
fill="#000000" stroke="none">
<path d="M2711 9325 c-145 -26 -267 -83 -382 -178 -87 -72 -140 -145 -256
-351 -52 -94 -115 -205 -138 -246 -24 -41 -257 -460 -520 -930 -263 -470 -508
-910 -546 -977 -210 -374 -601 -1074 -713 -1276 -128 -232 -172 -406 -147
-589 21 -158 56 -242 239 -571 372 -666 667 -1194 1032 -1847 210 -377 491
-878 623 -1115 132 -236 254 -452 272 -480 105 -163 277 -285 475 -338 l85
-22 2135 0 c2056 0 2138 1 2210 19 151 38 295 121 395 227 85 90 37 8 683
1167 133 237 350 626 482 862 132 237 348 625 481 863 133 237 306 547 384
687 79 140 154 282 168 315 84 202 82 468 -6 666 -13 30 -185 342 -382 694
-426 763 -1062 1900 -1425 2550 -144 259 -278 495 -298 525 -81 127 -240 253
-388 306 -154 56 -61 54 -2313 53 -1694 -1 -2090 -3 -2150 -14z m3414 -1695
c271 -30 502 -114 725 -261 132 -88 344 -300 433 -434 183 -277 274 -564 284
-895 12 -387 -92 -729 -316 -1044 -64 -91 -538 -589 -582 -611 -37 -20 -113
-19 -156 2 -63 30 -84 76 -94 210 -12 147 -32 270 -65 393 -47 170 -47 172
-34 220 9 35 31 64 100 135 163 168 222 258 271 415 21 66 24 94 23 235 0 146
-2 167 -27 240 -76 228 -245 405 -463 485 -78 28 -105 33 -215 38 -158 6 -244
-11 -369 -74 -66 -33 -112 -66 -172 -123 -135 -128 -769 -787 -806 -839 -244
-336 -181 -818 140 -1078 94 -76 108 -100 108 -195 0 -85 -21 -160 -66 -230
-44 -71 -301 -327 -342 -340 -84 -28 -172 21 -341 190 -320 319 -491 732 -491
1186 0 420 149 815 422 1121 132 148 816 848 879 899 326 268 754 399 1154
355z m-672 -1853 c96 -74 256 -240 330 -344 136 -191 234 -424 282 -673 25
-130 30 -381 11 -525 -37 -284 -151 -564 -319 -786 -61 -82 -450 -491 -802
-845 -148 -149 -201 -195 -298 -259 -878 -580 -2038 -169 -2379 844 -62 186
-82 314 -83 536 0 227 16 336 81 533 75 230 203 447 368 624 33 34 143 149
246 255 152 155 195 194 228 203 49 15 99 7 143 -23 55 -37 68 -71 79 -208 11
-142 39 -301 77 -427 30 -101 33 -165 10 -207 -8 -16 -63 -81 -122 -143 -122
-130 -172 -203 -214 -311 -40 -103 -54 -186 -53 -311 2 -355 240 -660 578
-741 124 -30 284 -23 398 15 181 61 199 77 779 678 300 311 354 381 405 522
111 305 23 662 -213 862 -102 86 -122 110 -135 162 -8 37 -9 65 0 113 21 119
55 174 210 337 78 83 156 157 173 166 22 11 50 16 89 13 51 -3 64 -9 131 -60z"/>
</g>
</svg>
