<svg xmlns="http://www.w3.org/2000/svg" xmlns:xlink="http://www.w3.org/1999/xlink" id="Capa_1" x="0" y="0" version="1.1" viewBox="0 0 486.8 446.5" xml:space="preserve" style="enable-background:new 0 0 486.8 446.5"><style type="text/css">.st0{fill:#efefef}</style><title>ShortNIM Logo Only</title><g><g id="shortnim_logo"><g id="SHORT"><path d="M481.4,202.3L380,20.9C372.9,8.1,359.5,0.1,344.9,0H142c-14.6,0.1-28.1,8.1-35.1,20.9L5.4,202.3 c-7.3,13-7.3,28.9,0,41.9l101.4,181.4c7,12.8,20.5,20.8,35.1,20.9h202.9c14.6-0.1,28.1-8.1,35.1-20.9l101.4-181.4 C488.6,231.2,488.6,215.3,481.4,202.3z M281.2,301.9l-0.2,0.2l-35.3,36.4c-29.9,31.2-79.4,32.2-110.6,2.4 c-0.8-0.8-1.6-1.6-2.4-2.4c-31.1-32.1-31.1-84.4,0-116.5l19.5-20.1c3.2-3.3,8.5-3.4,11.8-0.1c1.6,1.6,2.5,3.7,2.5,5.9 c0.3,9.7,2.1,19.3,5.1,28.6c1,3.1,0.3,6.6-2,9l-6.8,7.1c-14.7,15.2-15.2,39.9-0.6,55.3c14,14.9,37.4,15.7,52.3,1.7 c0,0,0,0,0.1-0.1c0.5-0.4,0.9-0.9,1.4-1.4l35.3-36.4c14.8-15.4,14.8-39.8,0-55.2c-1.7-1.7-3.5-3.3-5.4-4.6 c-2.2-1.6-3.6-4.1-3.6-6.8c-0.2-6,2-11.8,6.1-16.1l11.1-11.4c2.9-3,7.5-3.4,10.8-0.9c3.9,2.8,7.5,5.9,10.8,9.3l0,0 C312.4,218.1,311.9,270,281.2,301.9z M355,225.8l-19.5,20.1c-3.2,3.3-8.5,3.4-11.8,0.2c-1.6-1.6-2.5-3.7-2.5-5.9 c-0.3-9.7-2.1-19.3-5.1-28.6c-1-3.1-0.3-6.6,2-9l6.9-7.1c14.7-15.2,15.2-39.9,0.6-55.3c-14-14.9-37.4-15.7-52.3-1.7l0,0 c-0.5,0.5-1,0.9-1.4,1.4l-35.3,36.4c-14.8,15.4-14.8,39.8,0,55.2c1.7,1.7,3.5,3.3,5.4,4.6c2.2,1.6,3.6,4.1,3.6,6.8 c0.2,6-2,11.8-6.1,16.1l-11.1,11.4c-2.9,3-7.5,3.4-10.8,0.9c-3.9-2.8-7.5-5.9-10.8-9.3c-31.4-32.4-30.9-84.4-0.2-116.3 c0.1-0.1,0.1-0.1,0.2-0.2l35.3-36.4c29.9-31.2,79.4-32.2,110.6-2.3l0,0c0.8,0.8,1.6,1.5,2.3,2.3l0,0 C386.1,141.4,386.1,193.6,355,225.8z" class="st0"/></g></g></g></svg>