<svg xmlns="http://www.w3.org/2000/svg" xmlns:xlink="http://www.w3.org/1999/xlink" viewBox="0 0 486.82 446.51"><defs><style>.cls-1{fill:url(#Degradado_sin_nombre);}.cls-2{fill:url(#Degradado_sin_nombre_2);}</style><radialGradient id="Degradado_sin_nombre" cx="335.87" cy="-97.5" r="449.35" gradientTransform="translate(-0.04 549.34) scale(1.08 1.12)" gradientUnits="userSpaceOnUse"><stop offset="0" stop-color="#ec991c"/><stop offset="1" stop-color="#e9b213"/></radialGradient><linearGradient id="Degradado_sin_nombre_2" x1="92.57" y1="100.23" x2="291.91" y2="286.8" gradientTransform="matrix(1, 0, 0, -1, 0, 465.74)" gradientUnits="userSpaceOnUse"><stop offset="0" stop-color="#fff" stop-opacity="0.6"/><stop offset="1" stop-color="#fff"/></linearGradient></defs><title>shortnim_logo_only_color</title><g id="Capa_2" data-name="Capa 2"><g id="Capa_1-2" data-name="Capa 1"><g id="SHORT"><path id="Nimiq" class="cls-1" d="M481.4,202.32,380,20.93A40.37,40.37,0,0,0,344.86,0H142a40.34,40.34,0,0,0-35.09,20.93L5.44,202.32a43,43,0,0,0,0,41.87L106.86,425.58A40.36,40.36,0,0,0,142,446.51H344.86A40.34,40.34,0,0,0,380,425.58L481.36,244.19A43,43,0,0,0,481.4,202.32Z"/><path id="Link" class="cls-2" d="M281,185.63c31.38,32.42,30.95,84.39.19,116.31l-.19.2-35.3,36.43a78.19,78.19,0,0,1-110.55,2.36c-.8-.77-1.59-1.56-2.36-2.36-31.13-32.12-31.13-84.4,0-116.52l19.49-20.11a8.36,8.36,0,0,1,14.34,5.75,103,103,0,0,0,5.09,28.58,9,9,0,0,1-2,9l-6.82,7.09c-14.73,15.19-15.19,39.93-.61,55.27a37,37,0,0,0,52.37,1.64c.47-.44.93-.89,1.38-1.36l35.29-36.42a39.9,39.9,0,0,0,0-55.2,38.79,38.79,0,0,0-5.43-4.64,8.79,8.79,0,0,1-3.65-6.84,21.94,21.94,0,0,1,6.15-16.15l11.06-11.42a8.22,8.22,0,0,1,10.81-.93A80.37,80.37,0,0,1,281,185.63Zm74-76.4a78.2,78.2,0,0,0-110.57-2.34c-.79.76-1.58,1.54-2.34,2.34l-35.29,36.43a1.8,1.8,0,0,0-.19.2c-30.76,31.92-31.2,83.89.19,116.31a80.37,80.37,0,0,0,10.78,9.32,8.22,8.22,0,0,0,10.81-.93l11.06-11.42A22,22,0,0,0,245.56,243a8.79,8.79,0,0,0-3.65-6.84,38.79,38.79,0,0,1-5.43-4.64,39.9,39.9,0,0,1,0-55.2l35.32-36.44a37,37,0,0,1,52.31-1.16c.49.47,1,.95,1.43,1.44,14.58,15.34,14.12,40.08-.6,55.27l-6.88,7.09a9,9,0,0,0-2,9,102.81,102.81,0,0,1,5.09,28.57,8.35,8.35,0,0,0,14.33,5.75L355,225.72c31.14-32.12,31.14-84.4,0-116.52Z"/></g></g></g></svg>